HIERARCHY
ROOT Hips
{
	OFFSET 56.228901 0.591752 96.635101
	CHANNELS 6 Xposition Yposition Zposition Xrotation Yrotation Zrotation
	JOINT spine
	{
		OFFSET 0.000000 -0.458068 7.965683
		CHANNELS 3 Xrotation Yrotation Zrotation
		JOINT spine1
		{
			OFFSET 0.000000 -0.000002 10.243103
			CHANNELS 3 Xrotation Yrotation Zrotation
			JOINT spine2
			{
				OFFSET 0.000000 -0.000002 9.814751
				CHANNELS 3 Xrotation Yrotation Zrotation
				JOINT Neck
				{
					OFFSET 0.000000 -1.201384 25.198601
					CHANNELS 3 Xrotation Yrotation Zrotation
					JOINT Head
					{
						OFFSET 0.000000 -0.000001 7.613144
						CHANNELS 3 Xrotation Yrotation Zrotation
						End Site
						{
							OFFSET 0.000000 6.077327 18.428101
						}
					}
				}
				JOINT RightShoulder
				{
					OFFSET -4.132702 0.575449 10.599205
					CHANNELS 3 Xrotation Yrotation Zrotation
					JOINT RightArm
					{
						OFFSET 0.000000 -0.000002 13.901794
						CHANNELS 3 Xrotation Yrotation Zrotation
						JOINT RightArmRoll
						{
							OFFSET 0.000000 -0.000001 7.017883
							CHANNELS 3 Xrotation Yrotation Zrotation
							JOINT RightForeArm
							{
								OFFSET 0.000000 -0.000003 20.440598
								CHANNELS 3 Xrotation Yrotation Zrotation
								JOINT RightForeArmRoll
								{
									OFFSET 0.000000 -0.000001 7.875153
									CHANNELS 3 Xrotation Yrotation Zrotation
									JOINT RightHand
									{
										OFFSET 0.000000 -0.000003 15.803696
										CHANNELS 3 Xrotation Yrotation Zrotation
										End Site
										{
											OFFSET 0.000000 -0.000000 0.100006
										}
									}
								}
							}
						}
					}
				}
				JOINT LeftShoulder
				{
					OFFSET 4.132702 0.575449 10.599205
					CHANNELS 3 Xrotation Yrotation Zrotation
					JOINT LeftArm
					{
						OFFSET 0.000000 -0.000002 13.901794
						CHANNELS 3 Xrotation Yrotation Zrotation
						JOINT LeftArmRoll
						{
							OFFSET 0.000000 -0.000001 7.017883
							CHANNELS 3 Xrotation Yrotation Zrotation
							JOINT LeftForeArm
							{
								OFFSET 0.000000 -0.000003 20.440598
								CHANNELS 3 Xrotation Yrotation Zrotation
								JOINT LeftForeArmRoll
								{
									OFFSET 0.000000 -0.000001 7.875153
									CHANNELS 3 Xrotation Yrotation Zrotation
									JOINT LeftHand
									{
										OFFSET 0.000000 -0.000003 15.803696
										CHANNELS 3 Xrotation Yrotation Zrotation
										End Site
										{
											OFFSET 0.000000 -0.000000 0.100006
										}
									}
								}
							}
						}
					}
				}
			}
		}
	}
	JOINT RightUpLeg
	{
		OFFSET -7.060482 1.086100 -1.294701
		CHANNELS 3 Xrotation Yrotation Zrotation
		JOINT RightUpLegRoll
		{
			OFFSET 0.000000 -0.000003 18.530800
			CHANNELS 3 Xrotation Yrotation Zrotation
			JOINT RightLeg
			{
				OFFSET 0.000000 0.000004 -22.947601
				CHANNELS 3 Xrotation Yrotation Zrotation
				JOINT RightLegRoll
				{
					OFFSET 0.000000 -0.000004 23.022598
					CHANNELS 3 Xrotation Yrotation Zrotation
					JOINT RightFoot
					{
						OFFSET 0.000000 -0.000003 19.162506
						CHANNELS 3 Xrotation Yrotation Zrotation
						JOINT RightToeBase
						{
							OFFSET 0.000000 -0.000003 16.018799
							CHANNELS 3 Xrotation Yrotation Zrotation
							End Site
							{
								OFFSET 0.006790 0.894205 7.757812
							}
						}
					}
				}
			}
		}
	}
	JOINT LeftUpLeg
	{
		OFFSET 7.060482 1.086100 -1.294701
		CHANNELS 3 Xrotation Yrotation Zrotation
		JOINT LeftUpLegRoll
		{
			OFFSET 0.000000 -0.000003 18.530899
			CHANNELS 3 Xrotation Yrotation Zrotation
			JOINT LeftLeg
			{
				OFFSET 0.000000 -0.000004 22.947502
				CHANNELS 3 Xrotation Yrotation Zrotation
				JOINT LeftLegRoll
				{
					OFFSET 0.000000 -0.000004 23.235504
					CHANNELS 3 Xrotation Yrotation Zrotation
					JOINT LeftFoot
					{
						OFFSET 0.000000 -0.000003 18.949600
						CHANNELS 3 Xrotation Yrotation Zrotation
						JOINT LeftToeBase
						{
							OFFSET 0.000000 -0.000003 16.018799
							CHANNELS 3 Xrotation Yrotation Zrotation
							End Site
							{
								OFFSET -0.030430 0.894206 7.757812
							}
						}
					}
				}
			}
		}
	}
}
MOTION
Frames: 12
Frame Time: 0.041667
55.277195 0.447633 96.806099 -6.399794 -1.017989 5.472135 -0.774677 0.166078 -0.282781 2.454320 0.329850 -0.581033 4.099375 0.322962 -0.584892 5.407430 4.956387 -1.082796 18.896849 -8.587654 0.673201 -10.165296 -68.960021 -12.556014 -58.804787 -126.571233 -93.979455 0.000000 0.000002 0.000001 99.956212 0.569071 -10.348582 -0.000005 0.000001 -3.005040 -5.000196 -7.999115 0.000093 -10.732753 60.363668 12.748575 -55.612100 126.757191 97.217805 -0.000004 0.000016 -0.000000 99.263768 0.309688 10.663903 -0.000001 0.000003 2.999999 -5.000191 7.998736 -0.000180 4.075152 -178.431971 3.271180 -179.999991 0.000005 -1.177001 173.131157 -2.362938 -0.558555 -0.000003 -0.000000 0.104834 69.786666 6.894638 2.071590 25.456957 -7.355615 0.000000 4.097139 177.076479 -0.496424 -0.000020 -0.000004 -1.199590 -8.139582 1.509110 0.340195 -0.000001 0.000000 -0.140551 69.943377 -6.880409 -2.084528 25.456957 7.355612 -0.000010 
55.290096 0.441702 96.807190 -6.400990 -1.016476 5.470182 -0.774057 0.165381 -0.282683 2.455560 0.328370 -0.581857 4.100604 0.321496 -0.585694 5.404092 4.935855 -1.076909 18.921024 -8.549803 0.672807 -10.193288 -68.976762 -12.588203 -58.824267 -126.470747 -93.808939 -0.000001 -0.000002 -0.000002 100.037655 0.591695 -10.375958 -0.000004 -0.000004 -3.005039 -5.000193 -7.999115 0.000093 -10.753814 60.390716 12.774792 -55.648348 126.679409 96.962356 -0.000003 0.000016 0.000000 99.284975 0.309748 10.639853 0.000002 0.000001 2.999999 -5.000194 7.998737 -0.000178 4.094219 -178.436998 3.270955 -179.999991 0.000005 -1.177000 173.167371 -2.366088 -0.556421 -0.000003 -0.000000 0.103701 69.763682 6.894655 2.072021 25.456953 -7.355614 -0.000000 4.127606 177.071589 -0.508688 -0.000020 -0.000004 -1.199580 -8.089290 1.519169 0.338806 -0.000001 0.000000 -0.138170 69.910415 -6.880415 -2.085271 25.456960 7.355612 -0.000011 
55.284199 0.460327 96.842300 -6.401909 -1.014973 5.467783 -0.773700 0.164665 -0.282606 2.456260 0.326905 -0.582547 4.101313 0.320039 -0.586362 5.407613 4.919777 -1.071726 18.936266 -8.519492 0.672846 -10.218030 -68.992567 -12.616725 -58.838671 -126.371750 -93.616547 -0.000001 0.000001 -0.000002 100.114611 0.611699 -10.398129 -0.000003 0.000000 -3.005041 -5.000194 -7.999114 0.000097 -10.766529 60.414799 12.791058 -55.674081 126.600807 96.681198 -0.000003 0.000016 0.000001 99.312364 0.307728 10.616937 -0.000002 0.000001 3.000002 -5.000191 7.998739 -0.000181 4.109868 -178.441014 3.270264 -179.999991 0.000005 -1.177001 173.197219 -2.368229 -0.555426 -0.000003 -0.000000 0.102797 69.744175 6.894641 2.072530 25.456957 -7.355614 0.000000 4.152334 177.067709 -0.518488 -0.000020 -0.000004 -1.199579 -8.049137 1.527074 0.337615 -0.000001 0.000000 -0.136298 69.884672 -6.880451 -2.085873 25.456955 7.355613 -0.000011 
55.276699 0.456972 96.841507 -6.402547 -1.013482 5.464930 -0.773653 0.163930 -0.282547 2.456350 0.325462 -0.583067 4.101405 0.318595 -0.586863 5.419005 4.908811 -1.067378 18.941732 -8.497884 0.673445 -10.239155 -69.007594 -12.641153 -58.845317 -126.275021 -93.397701 -0.000001 0.000001 -0.000004 100.186717 0.628787 -10.415056 -0.000004 -0.000001 -3.005040 -5.000198 -7.999115 0.000096 -10.769388 60.435658 12.795575 -55.689582 126.520252 96.374598 -0.000003 0.000015 0.000000 99.346631 0.302994 10.595239 0.000003 0.000005 3.000005 -5.000192 7.998738 -0.000178 4.121584 -178.446028 3.268904 -179.999991 0.000005 -1.177000 173.219745 -2.369330 -0.554613 -0.000003 -0.000000 0.102156 69.728616 6.894648 2.072798 25.456952 -7.355614 -0.000000 4.170260 177.064786 -0.525422 -0.000020 -0.000004 -1.199569 -8.020999 1.532477 0.336675 -0.000002 0.000000 -0.135027 69.867603 -6.880430 -2.086328 25.456955 7.355613 -0.000010 
55.278599 0.440532 96.809296 -6.402951 -1.012020 5.461458 -0.773861 0.163159 -0.282508 2.455938 0.324019 -0.583452 4.100983 0.317147 -0.587231 5.438680 4.902839 -1.063730 18.935885 -8.484510 0.674525 -10.256720 -69.021609 -12.661541 -58.842298 -126.179139 -93.151138 0.000001 -0.000002 -0.000002 100.253858 0.643256 -10.424715 -0.000005 0.000001 -3.005039 -5.000194 -7.999119 0.000094 -10.761285 60.453280 12.787044 -55.690412 126.436022 96.032911 -0.000000 0.000015 0.000000 99.388494 0.295531 10.574746 0.000001 0.000002 2.999998 -5.000190 7.998737 -0.000181 4.128939 -178.450030 3.266936 -179.999991 0.000005 -1.177001 173.234088 -2.369401 -0.554020 -0.000003 -0.000000 0.101821 69.717182 6.894659 2.073011 25.456957 -7.355614 0.000001 4.182123 177.062832 -0.529562 -0.000020 -0.000004 -1.199560 -8.003763 1.535453 0.335932 -0.000002 0.000000 -0.134320 69.858608 -6.880452 -2.086689 25.456955 7.355613 -0.000010 
55.284801 0.442366 96.823997 -6.403168 -1.010598 5.457273 -0.774238 0.162344 -0.282497 2.455178 0.322554 -0.583773 4.100231 0.315674 -0.587534 5.465785 4.901065 -1.060538 18.919038 -8.477672 0.675981 -10.271545 -69.034880 -12.678823 -58.825940 -126.084158 -92.875280 0.000001 0.000003 0.000003 100.316914 0.655608 -10.429182 -0.000004 0.000003 -3.005039 -5.000195 -7.999114 0.000093 -10.743385 60.468566 12.766900 -55.673394 126.347298 95.649744 0.000000 0.000012 0.000000 99.437616 0.285577 10.555425 -0.000002 0.000005 3.000000 -5.000191 7.998737 -0.000177 4.132211 -178.454033 3.264296 -179.999991 0.000005 -1.177000 173.240918 -2.368444 -0.553620 -0.000003 -0.000000 0.101781 69.709355 6.894691 2.073104 25.456959 -7.355615 -0.000000 4.189675 177.061863 -0.531428 -0.000020 -0.000004 -1.199550 -7.994403 1.536519 0.335291 -0.000002 0.000000 -0.134040 69.856067 -6.880476 -2.086852 25.456953 7.355610 -0.000010 
55.291695 0.428151 96.806198 -6.403196 -1.009207 5.452438 -0.774772 0.161491 -0.282513 2.454107 0.321068 -0.584038 4.099162 0.314179 -0.587786 5.499405 4.903039 -1.057756 18.892267 -8.476694 0.677752 -10.283926 -69.047496 -12.693335 -58.798817 -125.989301 -92.574417 -0.000001 0.000001 0.000003 100.376392 0.665873 -10.430466 -0.000005 0.000002 -3.005038 -5.000197 -7.999114 0.000097 -10.717106 60.481496 12.736817 -55.640312 126.254039 95.229783 -0.000000 0.000015 0.000002 99.492996 0.273513 10.537289 -0.000002 0.000002 3.000004 -5.000188 7.998737 -0.000178 4.131943 -178.458022 3.261090 -179.999991 0.000005 -1.177000 173.241273 -2.367455 -0.554486 -0.000003 -0.000000 0.101994 69.704696 6.894696 2.073195 25.456953 -7.355615 -0.000000 4.193380 177.061863 -0.531284 -0.000020 -0.000004 -1.199550 -7.992001 1.535884 0.334744 -0.000002 0.000001 -0.134138 69.859148 -6.880469 -2.087059 25.456957 7.355612 -0.000009 
55.294102 0.429485 96.810196 -6.403014 -1.007836 5.447044 -0.775455 0.160607 -0.282561 2.452738 0.319565 -0.584264 4.097792 0.312667 -0.587997 5.538655 4.908341 -1.055350 18.856848 -8.480917 0.679798 -10.294244 -69.059619 -12.705503 -58.760254 -125.895577 -92.248576 -0.000001 0.000001 0.000000 100.432454 0.674509 -10.425575 -0.000007 -0.000001 -3.005040 -5.000194 -7.999112 0.000093 -10.684048 60.492342 12.698667 -55.592023 126.156941 94.776634 -0.000001 0.000015 0.000000 99.553709 0.259646 10.520310 0.000000 0.000002 2.999999 -5.000189 7.998736 -0.000179 4.128698 -178.461983 3.257376 -179.999991 0.000005 -1.177001 173.236260 -2.365437 -0.555468 -0.000003 -0.000000 0.102417 69.702586 6.894725 2.073231 25.456953 -7.355614 -0.000000 4.193720 177.062887 -0.529388 -0.000020 -0.000004 -1.199540 -7.995613 1.533790 0.334279 -0.000001 0.000001 -0.134560 69.867098 -6.880481 -2.087169 25.456957 7.355612 -0.000011 
55.291698 0.440157 96.802399 -6.402620 -1.006475 5.441155 -0.776278 0.159699 -0.282641 2.451088 0.318049 -0.584461 4.096140 0.311138 -0.588179 5.582616 4.916535 -1.053278 18.813964 -8.489666 0.682066 -10.302703 -69.071155 -12.715572 -58.712934 -125.802263 -91.902142 -0.000002 0.000002 0.000000 100.485729 0.681397 -10.417519 -0.000007 -0.000002 -3.005040 -5.000195 -7.999117 0.000095 -10.645686 60.501290 12.654214 -55.529493 126.056797 94.293931 -0.000003 0.000014 0.000000 99.618931 0.244177 10.502457 0.000001 0.000003 3.000000 -5.000190 7.998738 -0.000176 4.122997 -178.465972 3.253245 -179.999991 0.000005 -1.177001 173.226916 -2.362420 -0.555500 -0.000003 -0.000000 0.103008 69.702695 6.894728 2.073125 25.456955 -7.355616 0.000000 4.191182 177.063857 -0.526085 -0.000020 -0.000004 -1.199531 -8.004315 1.530490 0.333889 -0.000002 0.000001 -0.135259 69.879167 -6.880448 -2.087216 25.456957 7.355611 -0.000011 
55.294998 0.433283 96.801003 -6.401996 -1.005115 5.434849 -0.777234 0.158774 -0.282754 2.449177 0.316521 -0.584642 4.094229 0.309598 -0.588347 5.630393 4.927193 -1.051504 18.765094 -8.502258 0.684548 -10.309697 -69.082268 -12.723975 -58.656114 -125.710287 -91.534917 -0.000002 0.000003 0.000000 100.536594 0.686684 -10.406320 -0.000004 0.000000 -3.005039 -5.000192 -7.999119 0.000093 -10.603611 60.508523 12.605305 -55.452537 125.954945 93.783613 0.000000 0.000015 0.000002 99.687752 0.227396 10.484730 0.000001 0.000003 2.999999 -5.000189 7.998737 -0.000178 4.115403 -178.470944 3.248703 -179.999991 0.000005 -1.177000 173.214362 -2.359374 -0.556660 -0.000003 -0.000000 0.103724 69.704293 6.894750 2.073030 25.456957 -7.355614 0.000000 4.186236 177.065838 -0.521560 -0.000020 -0.000004 -1.199520 -8.017162 1.526193 0.333559 -0.000002 0.000001 -0.136181 69.894535 -6.880446 -2.087161 25.456953 7.355611 -0.000010 
55.289902 0.426152 96.806290 -6.401137 -1.003746 5.428198 -0.778306 0.157838 -0.282902 2.447036 0.314985 -0.584820 4.092090 0.308049 -0.588510 5.681073 4.939870 -1.049984 18.711228 -8.518044 0.687154 -10.315513 -69.093053 -12.731037 -58.590312 -125.620184 -91.148492 0.000001 0.000002 0.000001 100.585252 0.690562 -10.390979 -0.000006 0.000000 -3.005038 -5.000194 -7.999119 0.000095 -10.559368 60.514274 12.553778 -55.363639 125.851836 93.250974 -0.000003 0.000015 0.000000 99.759366 0.209720 10.467100 -0.000001 0.000002 2.999998 -5.000190 7.998735 -0.000178 4.106460 -178.474919 3.243979 -179.999991 0.000005 -1.177001 173.199650 -2.356318 -0.557908 -0.000002 -0.000000 0.104521 69.707039 6.894746 2.072858 25.456952 -7.355615 0.000000 4.179369 177.067818 -0.516152 -0.000020 -0.000005 -1.199520 -8.033221 1.521152 0.333280 -0.000002 0.000001 -0.137274 69.912430 -6.880443 -2.087052 25.456957 7.355613 -0.000009 
55.278500 0.428791 96.800507 -6.400033 -1.002346 5.421284 -0.779486 0.156899 -0.283087 2.444666 0.313445 -0.585005 4.089717 0.306494 -0.588683 5.733752 4.954135 -1.048677 18.653735 -8.536329 0.689858 -10.320475 -69.103578 -12.737150 -58.518472 -125.531364 -90.747369 -0.000001 -0.000001 -0.000000 100.632298 0.693027 -10.373490 -0.000006 0.000000 -3.005041 -5.000197 -7.999115 0.000095 -10.514405 60.518563 12.501340 -55.263901 125.748345 92.699778 -0.000001 0.000016 -0.000000 99.832756 0.191464 10.449547 0.000002 0.000003 3.000003 -5.000191 7.998733 -0.000181 4.096711 -178.478895 3.239082 -179.999991 0.000005 -1.177001 173.183872 -2.352280 -0.559080 -0.000003 -0.000000 0.105358 69.710325 6.894760 2.072755 25.456957 -7.355615 0.000000 4.171062 177.069758 -0.510128 -0.000020 -0.000004 -1.199509 -8.051565 1.515588 0.333042 -0.000002 0.000000 -0.138488 69.932067 -6.880483 -2.086941 25.456955 7.355613 -0.000009 
